# xmcd
#
# Track frame offsets: 
#        150
#        20341
#        37936
#        60910
#        81874
#        109888
#        131146
#        156909
#
# Disc length: 2400 seconds
#
# Revision: 0
# Processed by: cddbd v1.5.2PL0 Copyright (c) Steve Scherf et al.
# Submitted via: ExactAudioCopyFreeDBPlugin 1.0
#
DISCID=5d095e08
DTITLE=Helene Fischer - Flieger
DYEAR=2018
DGENRE=Schlager
TTITLE0=Flieger (Extended Mix)
TTITLE1=Flieger (Rockstroh Radio Remix)
TTITLE2=Flieger (Jay Frog Bigroom Remix)
TTITLE3=Flieger (Disco Dice Remix)
TTITLE4=Flieger (Jay Frog Deep House Remix)
TTITLE5=Flieger (Jay Frog Remix)
TTITLE6=Flieger (Rockstroh Extended Remix)
TTITLE7=Flieger (Disco Dice Extended Remix)
EXTD=
EXTT0=
EXTT1=
EXTT2=
EXTT3=
EXTT4=
EXTT5=
EXTT6=
EXTT7=
PLAYORDER=
